{
  "accessors": [
    {
      "bufferView": 2,
      "componentType": 5126,
      "count": 600,
      "max": [
        3.1750001907348633,
        1.520000267873911e-07,
        2.0133016109466553
      ],
      "min": [
        -1.5784788131713867,
        -2.4796252250671387,
        -2.329536199569702
      ],
      "type": "VEC3"
    },
    {
      "bufferView": 2,
      "byteOffset": 7200,
      "componentType": 5126,
      "count": 600,
      "max": [
        1.0,
        1.0,
        1.0
      ],
      "min": [
        -1.0,
        -1.0,
        -1.0
      ],
      "type": "VEC3"
    },
    {
      "bufferView": 1,
      "componentType": 5126,
      "count": 600,
      "max": [
        0.9867830276489258,
        0.95685875415802
      ],
      "min": [
        0.00916511844843626,
        0.009165105409920216
      ],
      "type": "VEC2"
    },
    {
      "bufferView": 0,
      "componentType": 5125,
      "count": 810,
      "type": "SCALAR"
    },
    {
      "bufferView": 2,
      "byteOffset": 14400,
      "componentType": 5126,
      "count": 8,
      "max": [
        0.7905055284500122,
        -1.0513625144958496,
        1.048579454421997
      ],
      "min": [
        0.4889702796936035,
        -2.38040828704834,
        -1.0485793352127075
      ],
      "type": "VEC3"
    },
    {
      "bufferView": 2,
      "byteOffset": 14496,
      "componentType": 5126,
      "count": 8,
      "max": [
        0.9951717257499695,
        -0.01070419605821371,
        0.16337524354457855
      ],
      "min": [
        0.9375220537185669,
        -0.3071880638599396,
        -0.1633644551038742
      ],
      "type": "VEC3"
    },
    {
      "bufferView": 1,
      "byteOffset": 4800,
      "componentType": 5126,
      "count": 8,
      "max": [
        0.9999999403953552,
        0.9999999403953552
      ],
      "min": [
        -1.1920928955078125e-07,
        -5.960464477539063e-08
      ],
      "type": "VEC2"
    },
    {
      "bufferView": 0,
      "byteOffset": 3240,
      "componentType": 5125,
      "count": 30,
      "type": "SCALAR"
    }
  ],
  "asset": {
    "extras": {
      "author": "SketchyBot (https://sketchfab.com/SketchyB0t_3D_Fabrication)",
      "license": "SKETCHFAB Standard (https://sketchfab.com/licenses)",
      "source": "https://sketchfab.com/3d-models/low-poly-80s-computer-v3-daf8d397f771445496844216d900c0f8",
      "title": "Low Poly 80's Computer V3"
    },
    "generator": "Sketchfab-16.59.0",
    "version": "2.0"
  },
  "bufferViews": [
    {
      "buffer": 0,
      "byteLength": 3360,
      "name": "floatBufferViews",
      "target": 34963
    },
    {
      "buffer": 0,
      "byteLength": 4864,
      "byteOffset": 3360,
      "byteStride": 8,
      "name": "floatBufferViews",
      "target": 34962
    },
    {
      "buffer": 0,
      "byteLength": 14592,
      "byteOffset": 8224,
      "byteStride": 12,
      "name": "floatBufferViews",
      "target": 34962
    }
  ],
  "buffers": [
    {
      "byteLength": 22816,
      "uri": "scene.bin"
    }
  ],
  "extensionsUsed": [
    "KHR_materials_emissive_strength"
  ],
  "images": [
    {
      "uri": "textures/Old_Computer_V3_diffuse.png"
    },
    {
      "uri": "textures/Screen.001_diffuse.png"
    },
    {
      "uri": "textures/Screen.001_specularGlossiness.png"
    },
    {
      "uri": "textures/Screen.001_emissive.png"
    }
  ],
  "materials": [
    {
      "alphaMode": "BLEND",
      "doubleSided": true,
      "name": "Old_Computer_V3",
      "pbrMetallicRoughness": {
        "baseColorTexture": {
          "index": 0
        },
        "baseColorFactor": [
          1.0,
          1.0,
          1.0,
          1.0
        ],
        "metallicFactor": 0.0,
        "roughnessFactor": 0.8211
      }
    },
    {
      "doubleSided": true,
      "emissiveFactor": [
        1.0,
        1.0,
        1.0
      ],
      "emissiveTexture": {
        "index": 3
      },
      "extensions": {
        "KHR_materials_emissive_strength": {
          "emissiveStrength": 10.0
        }
      },
      "name": "Screen.001",
      "pbrMetallicRoughness": {
        "baseColorTexture": {
          "index": 1
        },
        "baseColorFactor": [
          1.0,
          1.0,
          1.0,
          1.0
        ],
        "metallicFactor": 0.0,
        "roughnessFactor": 0.0
      }
    }
  ],
  "meshes": [
    {
      "name": "ComputerTower-LowPoly.003_Old Computer V3_0",
      "primitives": [
        {
          "attributes": {
            "NORMAL": 1,
            "POSITION": 0,
            "TEXCOORD_0": 2
          },
          "indices": 3,
          "material": 0,
          "mode": 4
        }
      ]
    },
    {
      "name": "ComputerTower-LowPoly.003_Screen.001_0",
      "primitives": [
        {
          "attributes": {
            "NORMAL": 5,
            "POSITION": 4,
            "TEXCOORD_0": 6
          },
          "indices": 7,
          "material": 1,
          "mode": 4
        }
      ]
    }
  ],
  "nodes": [
    {
      "children": [
        1
      ],
      "matrix": [
        1.1695830821990967,
        0.0,
        0.0,
        0.0,
        0.0,
        -0.006082890259234512,
        1.1695672574424947,
        0.0,
        0.0,
        -1.1695672574424947,
        -0.006082890259234512,
        0.0,
        0.0,
        0.0,
        0.0,
        1.0
      ],
      "name": "Sketchfab_model"
    },
    {
      "children": [
        2
      ],
      "matrix": [
        0.009999999776482582,
        0.0,
        0.0,
        0.0,
        0.0,
        -0.009999999776482582,
        0.0,
        0.0,
        0.0,
        0.0,
        -0.009999999776482582,
        0.0,
        0.0,
        0.0,
        0.0,
        1.0
      ],
      "name": "7182244f0b794e859238d85b60d98748.fbx"
    },
    {
      "children": [
        3
      ],
      "name": "RootNode"
    },
    {
      "children": [
        4,
        5
      ],
      "matrix": [
        -3.2584135922775204e-06,
        -19.999999999999698,
        1.1920927533992653e-06,
        0.0,
        -8.742279911100326e-07,
        -1.1920926112907182e-06,
        -19.999999999999947,
        0.0,
        19.999999999999716,
        -3.2584136455682255e-06,
        -8.742277968210033e-07,
        0.0,
        0.0,
        0.0,
        0.0,
        1.0
      ],
      "name": "ComputerTower-LowPoly.003"
    },
    {
      "mesh": 0,
      "name": "ComputerTower-LowPoly.003_Old Computer V3_0"
    },
    {
      "mesh": 1,
      "name": "ComputerTower-LowPoly.003_Screen.001_0"
    }
  ],
  "samplers": [
    {
      "magFilter": 9728,
      "minFilter": 9986,
      "wrapS": 10497,
      "wrapT": 10497
    }
  ],
  "scene": 0,
  "scenes": [
    {
      "name": "Sketchfab_Scene",
      "nodes": [
        0
      ]
    }
  ],
  "textures": [
    {
      "sampler": 0,
      "source": 0
    },
    {
      "sampler": 0,
      "source": 1
    },
    {
      "sampler": 0,
      "source": 2
    },
    {
      "sampler": 0,
      "source": 3
    }
  ]
}